<mxfile host="Electron" modified="2024-09-12T06:10:49.437Z" agent="Mozilla/5.0 (X11; Linux x86_64) AppleWebKit/537.36 (KHTML, like Gecko) draw.io/24.6.4 Chrome/124.0.6367.207 Electron/30.0.6 Safari/537.36" etag="xH73HIAX_vKg3A89M-en" version="24.6.4" type="device">
  <diagram name="第 1 页" id="NF0pKxZkLIZrm6XSLs1j">
    <mxGraphModel dx="897" dy="664" grid="1" gridSize="10" guides="1" tooltips="1" connect="1" arrows="1" fold="1" page="1" pageScale="1" pageWidth="827" pageHeight="1169" math="0" shadow="0">
      <root>
        <mxCell id="0" />
        <mxCell id="1" parent="0" />
        <mxCell id="ma3_RtaVjRlwpRnNTFMP-1" value="" style="endArrow=none;html=1;rounded=0;" parent="1" edge="1">
          <mxGeometry width="50" height="50" relative="1" as="geometry">
            <mxPoint x="240" y="480" as="sourcePoint" />
            <mxPoint x="240" y="280" as="targetPoint" />
          </mxGeometry>
        </mxCell>
        <mxCell id="ma3_RtaVjRlwpRnNTFMP-3" value="update endpoint" style="rounded=0;whiteSpace=wrap;html=1;fillColor=#60a917;fontColor=#ffffff;strokeColor=#2D7600;" parent="1" vertex="1">
          <mxGeometry x="240" y="310" width="150" height="30" as="geometry" />
        </mxCell>
        <mxCell id="ma3_RtaVjRlwpRnNTFMP-5" value="SIGTERM" style="rounded=0;whiteSpace=wrap;html=1;fillColor=#008a00;fontColor=#ffffff;strokeColor=#005700;" parent="1" vertex="1">
          <mxGeometry x="260" y="370" width="70" height="30" as="geometry" />
        </mxCell>
        <mxCell id="ma3_RtaVjRlwpRnNTFMP-6" value="start" style="rounded=0;whiteSpace=wrap;html=1;" parent="1" vertex="1">
          <mxGeometry x="200" y="250" width="90" height="30" as="geometry" />
        </mxCell>
        <mxCell id="ma3_RtaVjRlwpRnNTFMP-7" value="" style="endArrow=none;html=1;rounded=0;" parent="1" edge="1">
          <mxGeometry width="50" height="50" relative="1" as="geometry">
            <mxPoint x="519.5" y="480" as="sourcePoint" />
            <mxPoint x="519.5" y="280" as="targetPoint" />
          </mxGeometry>
        </mxCell>
        <mxCell id="ma3_RtaVjRlwpRnNTFMP-8" value="end" style="rounded=0;whiteSpace=wrap;html=1;" parent="1" vertex="1">
          <mxGeometry x="480" y="250" width="80" height="30" as="geometry" />
        </mxCell>
        <mxCell id="Ib89e8eEE6bc1uW6DCXh-1" value="Grace Quit" style="rounded=0;whiteSpace=wrap;html=1;fillColor=#008a00;fontColor=#ffffff;strokeColor=#005700;" parent="1" vertex="1">
          <mxGeometry x="330" y="400" width="190" height="30" as="geometry" />
        </mxCell>
        <mxCell id="Ib89e8eEE6bc1uW6DCXh-2" value="" style="endArrow=none;html=1;rounded=0;" parent="1" edge="1">
          <mxGeometry width="50" height="50" relative="1" as="geometry">
            <mxPoint x="330" y="480" as="sourcePoint" />
            <mxPoint x="330" y="270" as="targetPoint" />
          </mxGeometry>
        </mxCell>
        <mxCell id="Ib89e8eEE6bc1uW6DCXh-3" value="" style="endArrow=none;html=1;rounded=0;" parent="1" edge="1">
          <mxGeometry width="50" height="50" relative="1" as="geometry">
            <mxPoint x="390" y="480" as="sourcePoint" />
            <mxPoint x="390" y="270" as="targetPoint" />
          </mxGeometry>
        </mxCell>
        <mxCell id="Ib89e8eEE6bc1uW6DCXh-4" value="" style="endArrow=classic;startArrow=classic;html=1;rounded=0;" parent="1" edge="1">
          <mxGeometry width="50" height="50" relative="1" as="geometry">
            <mxPoint x="330" y="470" as="sourcePoint" />
            <mxPoint x="390" y="470" as="targetPoint" />
          </mxGeometry>
        </mxCell>
        <mxCell id="Ib89e8eEE6bc1uW6DCXh-5" value="Error" style="edgeLabel;html=1;align=center;verticalAlign=middle;resizable=0;points=[];" parent="Ib89e8eEE6bc1uW6DCXh-4" vertex="1" connectable="0">
          <mxGeometry x="-0.3" y="3" relative="1" as="geometry">
            <mxPoint x="9" y="-7" as="offset" />
          </mxGeometry>
        </mxCell>
        <mxCell id="vZTJ-_HI4g1W-4reKQ0k-1" value="" style="endArrow=none;html=1;rounded=0;" edge="1" parent="1">
          <mxGeometry width="50" height="50" relative="1" as="geometry">
            <mxPoint x="240" y="750" as="sourcePoint" />
            <mxPoint x="240" y="550" as="targetPoint" />
          </mxGeometry>
        </mxCell>
        <mxCell id="vZTJ-_HI4g1W-4reKQ0k-2" value="update endpoint" style="rounded=0;whiteSpace=wrap;html=1;fillColor=#60a917;fontColor=#ffffff;strokeColor=#2D7600;" vertex="1" parent="1">
          <mxGeometry x="240" y="580" width="220" height="30" as="geometry" />
        </mxCell>
        <mxCell id="vZTJ-_HI4g1W-4reKQ0k-3" value="SIGTERM" style="rounded=0;whiteSpace=wrap;html=1;fillColor=#008a00;fontColor=#ffffff;strokeColor=#005700;" vertex="1" parent="1">
          <mxGeometry x="260" y="640" width="70" height="30" as="geometry" />
        </mxCell>
        <mxCell id="vZTJ-_HI4g1W-4reKQ0k-4" value="start" style="rounded=0;whiteSpace=wrap;html=1;" vertex="1" parent="1">
          <mxGeometry x="200" y="520" width="90" height="30" as="geometry" />
        </mxCell>
        <mxCell id="vZTJ-_HI4g1W-4reKQ0k-5" value="" style="endArrow=none;html=1;rounded=0;" edge="1" parent="1">
          <mxGeometry width="50" height="50" relative="1" as="geometry">
            <mxPoint x="460" y="750" as="sourcePoint" />
            <mxPoint x="460" y="550" as="targetPoint" />
          </mxGeometry>
        </mxCell>
        <mxCell id="vZTJ-_HI4g1W-4reKQ0k-6" value="end" style="rounded=0;whiteSpace=wrap;html=1;" vertex="1" parent="1">
          <mxGeometry x="420" y="520" width="80" height="30" as="geometry" />
        </mxCell>
        <mxCell id="vZTJ-_HI4g1W-4reKQ0k-7" value="Grace Quit" style="rounded=0;whiteSpace=wrap;html=1;fillColor=#008a00;fontColor=#ffffff;strokeColor=#005700;" vertex="1" parent="1">
          <mxGeometry x="330" y="670" width="90" height="30" as="geometry" />
        </mxCell>
        <mxCell id="vZTJ-_HI4g1W-4reKQ0k-8" value="" style="endArrow=none;html=1;rounded=0;" edge="1" parent="1">
          <mxGeometry width="50" height="50" relative="1" as="geometry">
            <mxPoint x="330" y="750" as="sourcePoint" />
            <mxPoint x="330" y="540" as="targetPoint" />
          </mxGeometry>
        </mxCell>
        <mxCell id="vZTJ-_HI4g1W-4reKQ0k-10" value="" style="endArrow=classic;startArrow=classic;html=1;rounded=0;" edge="1" parent="1">
          <mxGeometry width="50" height="50" relative="1" as="geometry">
            <mxPoint x="330" y="740" as="sourcePoint" />
            <mxPoint x="460" y="740" as="targetPoint" />
          </mxGeometry>
        </mxCell>
        <mxCell id="vZTJ-_HI4g1W-4reKQ0k-11" value="Error" style="edgeLabel;html=1;align=center;verticalAlign=middle;resizable=0;points=[];" vertex="1" connectable="0" parent="vZTJ-_HI4g1W-4reKQ0k-10">
          <mxGeometry x="-0.3" y="3" relative="1" as="geometry">
            <mxPoint x="9" y="-7" as="offset" />
          </mxGeometry>
        </mxCell>
      </root>
    </mxGraphModel>
  </diagram>
</mxfile>
